# Blender v2.74 (sub 0) OBJ File: 'screenolith.blend'
# www.blender.org
v 4.000000 0.002455 -4.000000
v 4.000000 -0.081419 4.000000
v -4.000000 -0.081419 3.999999
v -3.999999 0.002455 -4.000001
v 4.000002 4.002454 -3.999998
v 3.999997 3.918581 4.000002
v -4.000001 3.918581 3.999999
v -4.000000 4.002454 -4.000000
v 3.100667 3.566171 -3.100667
v 3.100667 3.566171 3.100667
v -3.100666 3.566171 -3.100669
v -3.100667 3.566171 3.100667
v -4.808678 4.572187 -3.073183
v -4.808679 4.572187 3.073182
v -4.808677 1.499006 -3.073183
v -4.808678 1.499005 3.073181
v 4.880878 5.308406 3.123444
v 4.880883 5.308406 -3.123439
v 4.880881 2.184965 3.123442
v 4.880881 2.184965 -3.123442
v -3.008381 5.109156 4.811484
v 3.008378 5.109156 4.811488
v -3.008379 2.100778 4.811485
v 3.008378 2.100778 4.811485
v 4.000000 3.960518 0.000002
v 0.000001 4.002454 -3.999999
v -0.000002 3.918581 4.000000
v -4.000000 3.960518 -0.000001
v -0.000001 3.960518 0.000001
v 0.586159 9.289011 -0.586908
v 0.586161 6.748490 -3.413090
v 3.413841 6.718860 -0.586907
v 3.413842 6.748490 -3.413089
v -3.457413 6.032446 -0.543347
v -0.542588 8.602597 -0.543346
v -0.542587 6.062989 -3.456653
v -3.457412 6.062989 -3.456653
v -3.323169 6.436010 0.677560
v -0.676832 9.006162 0.677562
v -0.676832 6.408281 3.322439
v -3.323171 6.408281 3.322438
v 0.677932 8.001934 3.321337
v 0.677933 8.029640 0.678665
v 3.322065 8.029640 0.678666
v 3.322064 8.001934 3.321338
v 0.586160 6.733675 -1.999999
v 2.000000 6.718860 -0.586908
v 3.413841 6.733675 -1.999998
v 2.000001 6.748490 -3.413089
v -2.000000 6.032446 -0.543346
v -0.542587 6.047718 -1.999999
v -3.457412 6.047718 -2.000000
v -1.999999 6.062989 -3.456653
v -2.000001 6.436010 0.677561
v -0.676832 6.422146 2.000000
v -3.323170 6.422146 1.999999
v -2.000002 6.408281 3.322439
v 0.677932 8.015787 2.000001
v 1.999999 8.029640 0.678666
v 3.322064 8.015787 2.000002
v 1.999998 8.001934 3.321337
v -2.000000 6.919407 -2.000000
v 2.000000 7.605365 -1.999998
v 1.999998 8.887477 2.000001
v -2.000001 7.293836 2.000000
v 0.586160 6.741083 -2.706544
v 2.706920 6.718860 -0.586907
v 3.413841 6.741083 -2.706543
v 1.293081 6.748490 -3.413090
v -1.271294 8.602597 -0.543346
v -0.542587 8.610233 -1.271673
v -3.457412 6.055353 -2.728327
v -2.728706 6.062989 -3.456653
v -1.338417 9.006162 0.677561
v -0.676832 6.415214 2.661220
v -3.323170 6.429078 1.338780
v -2.661586 6.408281 3.322439
v 0.677933 8.022714 1.339333
v 2.661032 8.029640 0.678666
v 3.322065 8.022714 1.339334
v 1.338965 8.001934 3.321337
v 0.586159 9.296419 -1.293453
v 1.293079 9.289011 -0.586908
v 3.413841 6.726268 -1.293453
v 2.706922 6.748490 -3.413089
v -2.728707 6.032446 -0.543347
v -0.542587 6.055353 -2.728326
v -3.457413 6.040082 -1.271673
v -1.271293 6.062989 -3.456653
v -2.661585 6.436010 0.677560
v -0.676832 8.999229 1.338781
v -3.323171 6.415214 2.661219
v -1.338417 6.408281 3.322439
v 0.677932 8.008861 2.660669
v 1.338966 8.029640 0.678665
v 3.322064 8.008861 2.660670
v 2.661031 8.001934 3.321337
v -2.000000 6.927043 -2.728326
v -2.000000 6.040082 -1.271673
v -2.728706 6.919407 -2.000000
v -1.271294 6.047718 -2.000000
v 2.000001 7.612772 -2.706544
v 2.000000 6.726268 -1.293453
v 1.293080 7.605365 -1.999999
v 2.706921 6.733675 -1.999998
v 1.999999 8.894403 1.339334
v 1.999998 8.008861 2.660669
v 1.338965 8.887477 2.000001
v 2.661031 8.015787 2.000002
v -2.000001 7.300768 1.338780
v -2.000001 6.415214 2.661219
v -2.661586 7.293836 2.000000
v -1.338417 6.422146 2.000000
v -1.338417 6.415214 2.661220
v -2.661586 6.415214 2.661219
v -2.661586 7.300768 1.338780
v 2.661031 8.008861 2.660670
v 1.338965 8.008861 2.660669
v 1.338966 8.894403 1.339333
v 2.706921 6.726268 -1.293453
v 1.293080 9.296419 -1.293453
v 1.293081 7.612772 -2.706544
v -1.271294 8.610233 -1.271673
v -2.728707 6.040082 -1.271673
v -2.728706 6.927043 -2.728327
v -1.271293 6.055353 -2.728326
v 2.706921 6.741083 -2.706544
v 2.661032 8.022714 1.339334
v -1.338417 8.999229 1.338781
v 0.883752 1.531523 -2.764497
v -0.697355 1.531523 -2.764497
v 0.861048 3.156446 -2.764497
v -0.605238 3.438714 -2.764496
v -0.789065 0.002455 -4.000001
v 1.209092 0.002455 -4.000000
v 1.129615 2.007245 -3.494074
v -0.876057 0.002455 -4.000001
v 1.165308 1.819802 -4.000000
v -0.664102 2.145736 -3.999999
v -0.812995 2.075061 -3.476962
vn 0.000000 -1.000000 -0.000000
vn -0.000000 0.999900 0.010500
vn 1.000000 -0.000000 0.000000
vn 0.000000 -0.000000 1.000000
vn -1.000000 0.000000 -0.000000
vn -0.000000 0.000000 -1.000000
vn -0.969600 -0.244700 0.000000
vn -0.000000 -0.244700 0.969600
vn 0.000000 -0.239400 -0.970900
vn 0.970800 -0.240000 -0.002500
vn 0.984700 0.174300 0.000000
vn 0.993500 -0.000000 -0.113600
vn 0.993500 0.000000 0.113600
vn 0.950000 -0.312100 0.000000
vn -0.986900 0.161300 -0.000000
vn -0.992400 -0.000000 0.122700
vn -0.992400 0.000000 -0.122700
vn -0.895800 -0.444400 0.000000
vn 0.000000 0.154500 -0.988000
vn -0.115000 -0.000000 -0.993400
vn 0.115000 0.000000 -0.993400
vn 0.000000 -0.407600 -0.913100
vn 0.627600 -0.778500 -0.008200
vn 0.000000 -0.774500 -0.632600
vn -0.513000 -0.858400 -0.009000
vn 0.000000 -0.854400 -0.519700
vn -0.598500 -0.801100 -0.008400
vn 0.000000 -0.805100 0.593100
vn -0.775200 -0.631700 -0.006600
vn 0.000000 -0.628400 -0.777900
vn 0.775200 -0.631700 -0.006600
vn -0.000000 -0.634900 0.772600
vn 0.000000 0.644500 -0.764600
vn -0.000000 0.637900 0.770100
vn 0.000000 0.273400 -0.961900
vn 0.000000 0.632900 -0.774200
vn 0.915600 0.251800 0.313400
vn 0.000000 0.607100 -0.794600
vn -0.000000 0.601000 0.799300
vn 0.000000 0.607400 -0.794400
vn 0.000000 0.601300 0.799000
vn -0.621000 0.471300 0.626300
vn -0.624800 0.474200 -0.620200
vn -0.796500 0.604500 0.006300
vn -0.621100 0.471000 0.626400
vn -0.625000 0.473900 -0.620300
vn -0.796800 0.604200 0.006300
vn 0.000000 0.385500 -0.922700
vn 0.964200 0.265200 0.002800
vn -0.615200 0.499000 -0.610300
vn -0.776700 0.629900 0.006600
vn -0.694100 0.196800 -0.692400
vn -0.962100 0.272800 0.002900
vn -0.606600 0.507100 0.612300
vn -0.610600 0.510400 -0.605500
vn -0.767200 0.641400 0.006700
vn 0.767200 0.641400 0.006700
vn 0.776700 0.629900 0.006600
vn 0.796800 0.604200 0.006300
vn -0.931800 0.363000 0.003800
vn 0.311200 0.236200 0.920500
vn -0.000000 0.248500 0.968600
vn -0.580800 -0.014000 -0.813900
vn -0.000000 0.795100 0.606500
vn -0.970800 -0.240000 -0.002500
vn 0.969600 -0.244700 0.000000
vn -0.984800 -0.173900 -0.001800
vn -0.993500 0.000000 0.113600
vn -0.993500 -0.000000 -0.113600
vn -0.948800 0.315800 0.003300
vn -0.951200 0.308500 0.003200
vn 0.986900 -0.161600 -0.001700
vn 0.992400 -0.000000 -0.122700
vn 0.992400 0.000000 0.122700
vn 0.899000 0.437900 0.004600
vn 0.892500 0.451100 0.004700
vn -0.000000 -0.154500 0.988000
vn 0.115000 -0.000000 0.993400
vn -0.115000 0.000000 0.993400
vn -0.000000 0.407600 0.913100
vn 0.627600 0.778500 0.008200
vn -0.435100 -0.669600 0.601900
vn 0.000000 0.782400 -0.622700
vn -0.607900 -0.668800 0.427900
vn -0.627600 0.778500 0.008200
vn -0.000000 0.774500 0.632600
vn 0.000000 0.862300 -0.506400
vn 0.626800 -0.710900 0.319100
vn -0.513000 0.858400 0.009000
vn 0.327000 -0.712400 0.621000
vn 0.513000 0.858400 0.009000
vn -0.000000 0.854400 0.519700
vn -0.000000 0.797000 0.603900
vn 0.646500 -0.665700 -0.372700
vn -0.598500 0.801100 0.008400
vn 0.364600 -0.664300 -0.652500
vn 0.598500 0.801100 0.008400
vn 0.000000 0.805100 -0.593100
vn 0.775200 0.631700 0.006600
vn -0.000000 0.628400 0.777900
vn -0.775200 0.631700 0.006600
vn 0.000000 0.634900 -0.772600
vn 0.621000 0.471300 0.626300
vn 0.621100 0.471000 0.626400
vn 0.611300 0.495800 0.616800
vn -0.311400 0.252600 -0.916100
vn 0.606600 0.507100 0.612300
vn 0.610600 0.510400 -0.605500
vn 0.615200 0.499000 -0.610300
vn 0.625000 0.473900 -0.620300
vn -0.920700 0.237000 -0.310000
vn 0.998300 -0.058200 -0.002100
vn -0.157300 -0.882600 -0.443000
vn -0.689500 -0.538300 0.484600
vn 0.555400 -0.026800 0.831100
vn 0.000000 -0.628500 0.777800
vn 0.954100 -0.037200 0.297300
vn -0.988100 -0.008700 0.153700
vn 0.033900 0.831900 0.553900
s off
f 10//1 12//1 11//1
f 129//2 91//2 39//2
f 19//3 20//3 18//3
f 23//4 24//4 22//4
f 15//5 16//5 14//5
f 131//6 133//6 132//6
f 10//7 9//7 1//7
f 9//8 11//8 140//8
f 12//9 10//9 2//9
f 12//10 3//10 4//10
f 13//11 14//11 4//11
f 15//12 13//12 3//12
f 14//13 16//13 8//13
f 16//14 15//14 28//14
f 17//15 18//15 2//15
f 19//16 17//16 1//16
f 18//17 20//17 6//17
f 20//18 19//18 25//18
f 21//19 22//19 3//19
f 23//20 21//20 2//20
f 22//21 24//21 7//21
f 24//22 23//22 27//22
f 80//2 44//2 79//2
f 127//2 68//2 33//2
f 126//2 87//2 36//2
f 30//5 82//5 31//5
f 32//4 83//4 30//4
f 26//23 84//23 32//23
f 29//24 69//24 49//24
f 35//4 70//4 34//4
f 36//3 71//3 35//3
f 29//25 52//25 72//25
f 28//26 53//26 89//26
f 38//6 74//6 39//6
f 39//3 91//3 40//3
f 27//27 56//27 76//27
f 29//28 77//28 41//28
f 6//29 78//29 43//29
f 27//30 59//30 79//30
f 29//31 60//31 96//31
f 25//32 97//32 61//32
f 98//33 53//33 73//33
f 99//34 62//34 100//34
f 71//35 51//35 101//35
f 102//36 49//36 69//36
f 121//37 103//37 63//37
f 84//2 48//2 105//2
f 106//38 59//38 95//38
f 107//39 64//39 108//39
f 96//2 60//2 109//2
f 116//40 110//40 54//40
f 115//41 111//41 65//41
f 114//2 75//2 55//2
f 111//2 114//2 113//2
f 57//2 93//2 114//2
f 40//2 75//2 114//2
f 115//42 112//42 56//42
f 77//2 115//2 92//2
f 57//2 111//2 115//2
f 76//43 116//43 90//43
f 112//44 116//44 76//44
f 65//2 110//2 116//2
f 107//2 117//2 109//2
f 97//2 117//2 107//2
f 45//2 96//2 117//2
f 118//45 108//45 58//45
f 81//2 118//2 94//2
f 61//2 107//2 118//2
f 78//46 119//46 95//46
f 108//47 119//47 78//47
f 64//2 106//2 119//2
f 103//2 120//2 105//2
f 67//2 120//2 103//2
f 32//2 84//2 120//2
f 82//48 121//48 104//48
f 83//2 121//2 82//2
f 83//49 47//49 103//49
f 66//50 122//50 69//50
f 104//51 122//51 66//51
f 63//2 102//2 122//2
f 99//52 123//52 101//52
f 70//53 123//53 99//53
f 70//2 35//2 71//2
f 124//54 100//54 52//54
f 86//2 124//2 88//2
f 50//2 99//2 124//2
f 72//55 125//55 73//55
f 100//56 125//56 72//56
f 62//2 98//2 125//2
f 126//2 89//2 53//2
f 62//57 101//57 126//57
f 101//2 51//2 87//2
f 127//2 85//2 49//2
f 63//58 105//58 127//58
f 48//2 68//2 127//2
f 128//2 79//2 59//2
f 64//59 109//59 128//59
f 60//2 80//2 128//2
f 110//60 129//60 74//60
f 65//61 113//61 129//61
f 55//62 91//62 129//62
f 138//63 135//63 133//63
f 26//6 138//6 139//6
f 130//64 140//64 131//64
f 9//1 10//1 11//1
f 74//2 129//2 39//2
f 17//3 19//3 18//3
f 21//4 23//4 22//4
f 13//5 15//5 14//5
f 130//6 131//6 132//6
f 2//65 10//65 1//65
f 136//8 1//8 9//8
f 4//8 137//8 140//8
f 136//8 135//8 1//8
f 11//8 4//8 140//8
f 140//8 136//8 9//8
f 3//9 12//9 2//9
f 11//66 12//66 4//66
f 3//67 13//67 4//67
f 7//68 15//68 3//68
f 4//69 14//69 8//69
f 28//70 8//70 16//70
f 15//71 7//71 28//71
f 1//72 17//72 2//72
f 5//73 19//73 1//73
f 2//74 18//74 6//74
f 25//75 6//75 20//75
f 19//76 5//76 25//76
f 2//77 21//77 3//77
f 6//78 23//78 2//78
f 3//79 22//79 7//79
f 27//80 7//80 24//80
f 23//80 6//80 27//80
f 128//2 80//2 79//2
f 85//2 127//2 33//2
f 89//2 126//2 36//2
f 31//81 25//81 5//81
f 82//3 46//3 66//3
f 31//82 5//82 30//82
f 82//3 66//3 31//3
f 5//83 26//83 32//83
f 67//6 47//6 83//6
f 30//84 5//84 32//84
f 32//6 67//6 83//6
f 26//85 29//85 33//85
f 26//23 48//23 84//23
f 68//23 26//23 33//23
f 26//23 68//23 48//23
f 29//86 25//86 31//86
f 29//24 85//24 33//24
f 69//24 29//24 31//24
f 29//24 49//24 85//24
f 34//87 26//87 8//87
f 70//6 50//6 86//6
f 34//88 8//88 35//88
f 70//6 86//6 34//6
f 8//89 28//89 36//89
f 87//5 51//5 71//5
f 35//90 8//90 36//90
f 36//5 87//5 71//5
f 29//91 26//91 34//91
f 29//25 72//25 37//25
f 88//25 29//25 34//25
f 29//25 88//25 52//25
f 28//92 29//92 37//92
f 28//26 89//26 36//26
f 73//26 28//26 37//26
f 28//26 73//26 53//26
f 7//93 27//93 38//93
f 90//4 54//4 74//4
f 39//94 7//94 38//94
f 38//4 90//4 74//4
f 40//95 28//95 7//95
f 91//5 55//5 75//5
f 40//96 7//96 39//96
f 91//5 75//5 40//5
f 27//97 29//97 41//97
f 27//27 76//27 38//27
f 92//27 27//27 41//27
f 27//27 92//27 56//27
f 29//98 28//98 40//98
f 29//28 57//28 77//28
f 93//28 29//28 40//28
f 29//28 93//28 57//28
f 6//99 25//99 42//99
f 6//29 58//29 78//29
f 94//29 6//29 42//29
f 6//29 94//29 58//29
f 27//100 6//100 43//100
f 27//30 79//30 44//30
f 95//30 27//30 43//30
f 27//30 95//30 59//30
f 29//101 27//101 44//101
f 29//31 96//31 45//31
f 80//31 29//31 44//31
f 29//31 80//31 60//31
f 25//102 29//102 45//102
f 25//32 81//32 42//32
f 97//32 25//32 45//32
f 25//32 61//32 81//32
f 125//33 98//33 73//33
f 124//34 99//34 100//34
f 123//35 71//35 101//35
f 122//36 102//36 69//36
f 104//48 121//48 63//48
f 120//2 84//2 105//2
f 119//38 106//38 95//38
f 118//39 107//39 108//39
f 117//2 96//2 109//2
f 90//40 116//40 54//40
f 112//41 115//41 65//41
f 113//2 114//2 55//2
f 65//103 111//103 113//103
f 111//2 57//2 114//2
f 93//2 40//2 114//2
f 92//2 115//2 56//2
f 41//2 77//2 92//2
f 77//2 57//2 115//2
f 38//2 76//2 90//2
f 56//44 112//44 76//44
f 112//2 65//2 116//2
f 64//104 107//104 109//104
f 61//2 97//2 107//2
f 97//2 45//2 117//2
f 94//2 118//2 58//2
f 42//2 81//2 94//2
f 81//2 61//2 118//2
f 43//2 78//2 95//2
f 58//47 108//47 78//47
f 108//2 64//2 119//2
f 63//105 103//105 105//105
f 47//2 67//2 103//2
f 67//2 32//2 120//2
f 46//106 82//106 104//106
f 30//2 83//2 82//2
f 121//49 83//49 103//49
f 31//2 66//2 69//2
f 46//51 104//51 66//51
f 104//2 63//2 122//2
f 62//107 99//107 101//107
f 50//53 70//53 99//53
f 123//2 70//2 71//2
f 88//2 124//2 52//2
f 34//2 86//2 88//2
f 86//2 50//2 124//2
f 37//2 72//2 73//2
f 52//56 100//56 72//56
f 100//2 62//2 125//2
f 98//108 126//108 53//108
f 98//57 62//57 126//57
f 126//2 101//2 87//2
f 102//109 127//109 49//109
f 102//58 63//58 127//58
f 105//2 48//2 127//2
f 106//110 128//110 59//110
f 106//59 64//59 128//59
f 109//2 60//2 128//2
f 54//111 110//111 74//111
f 110//60 65//60 129//60
f 113//62 55//62 129//62
f 139//112 131//112 134//112
f 130//4 132//4 133//4
f 138//113 131//113 139//113
f 135//114 130//114 133//114
f 133//115 131//115 138//115
f 138//6 26//6 5//6
f 139//6 4//6 8//6
f 139//6 134//6 137//6
f 1//6 135//6 138//6
f 139//6 137//6 4//6
f 5//6 1//6 138//6
f 26//6 139//6 8//6
f 137//116 134//116 131//116
f 130//117 135//117 136//117
f 140//118 137//118 131//118
f 140//119 130//119 136//119
